<svg xmlns="http://www.w3.org/2000/svg" viewBox="0 0 96 96" role="img" aria-labelledby="title desc">
  <title id="title">Clear car safety logo</title>
  <desc id="desc">A bold yellow safety shield with a simple front-facing car.</desc>
  <defs>
    <linearGradient id="yellow" x1="16" x2="80" y1="10" y2="86" gradientUnits="userSpaceOnUse">
      <stop offset="0" stop-color="#fde047"/>
      <stop offset="1" stop-color="#f59e0b"/>
    </linearGradient>
  </defs>
  <rect width="96" height="96" rx="22" fill="#09090b"/>
  <path d="M48 9 80 22v22c0 20-13 35-32 44-19-9-32-24-32-44V22L48 9Z" fill="url(#yellow)"/>
  <path d="M48 19 70 28v16c0 13-7 23-22 31-15-8-22-18-22-31V28l22-9Z" fill="#18181b"/>
  <path d="M26 62h44l-4-18a10 10 0 0 0-10-8H40a10 10 0 0 0-10 8l-4 18Z" fill="#facc15"/>
  <path d="M37 37h22l4 13H33l4-13Z" fill="#fefce8"/>
  <rect x="28" y="56" width="40" height="12" rx="4" fill="#fefce8"/>
  <circle cx="38" cy="68" r="6" fill="#09090b"/>
  <circle cx="58" cy="68" r="6" fill="#09090b"/>
</svg>
