<svg xmlns="http://www.w3.org/2000/svg" viewBox="0 0 720 360" role="img" aria-labelledby="title desc">
  <title id="title">Taxi dashboard illustration</title>
  <desc id="desc">A yellow taxi car on a dark city dashboard background.</desc>
  <defs>
    <linearGradient id="sky" x1="0" x2="1" y1="0" y2="1">
      <stop offset="0" stop-color="#111827"/>
      <stop offset="1" stop-color="#27272a"/>
    </linearGradient>
    <linearGradient id="taxi" x1="0" x2="1">
      <stop offset="0" stop-color="#facc15"/>
      <stop offset="1" stop-color="#f59e0b"/>
    </linearGradient>
  </defs>
  <rect width="720" height="360" fill="url(#sky)"/>
  <g opacity=".18" fill="#ffffff">
    <rect x="58" y="80" width="42" height="148" rx="4"/>
    <rect x="128" y="38" width="60" height="190" rx="4"/>
    <rect x="222" y="100" width="50" height="128" rx="4"/>
    <rect x="520" y="66" width="56" height="162" rx="4"/>
    <rect x="610" y="102" width="44" height="126" rx="4"/>
  </g>
  <g fill="#facc15" opacity=".3">
    <rect x="0" y="270" width="720" height="8"/>
    <rect x="40" y="300" width="78" height="8"/>
    <rect x="160" y="300" width="78" height="8"/>
    <rect x="280" y="300" width="78" height="8"/>
    <rect x="400" y="300" width="78" height="8"/>
    <rect x="520" y="300" width="78" height="8"/>
    <rect x="640" y="300" width="78" height="8"/>
  </g>
  <g transform="translate(120 156)">
    <path d="M91 57h298c22 0 43 16 50 38l11 35H31l13-39c7-20 26-34 47-34Z" fill="url(#taxi)"/>
    <path d="M154 12h178c20 0 38 12 46 30l17 39H85l23-43c9-16 27-26 46-26Z" fill="#facc15"/>
    <path d="M166 30h60v47H139l17-33c2-5 6-10 10-14Zm83 0h72c12 0 22 7 27 17l13 30H249V30Z" fill="#111827" opacity=".8"/>
    <rect x="214" y="-4" width="92" height="24" rx="5" fill="#fff7cc"/>
    <text x="260" y="13" text-anchor="middle" font-family="Arial, sans-serif" font-size="13" font-weight="700" fill="#111827">TAXI</text>
    <rect x="46" y="95" width="384" height="54" rx="15" fill="#111827"/>
    <rect x="75" y="83" width="58" height="24" rx="12" fill="#fff7cc"/>
    <rect x="340" y="83" width="58" height="24" rx="12" fill="#fff7cc"/>
    <circle cx="121" cy="146" r="43" fill="#030712"/>
    <circle cx="121" cy="146" r="21" fill="#4b5563"/>
    <circle cx="356" cy="146" r="43" fill="#030712"/>
    <circle cx="356" cy="146" r="21" fill="#4b5563"/>
    <rect x="188" y="91" width="34" height="22" fill="#111827"/>
    <rect x="226" y="91" width="34" height="22" fill="#facc15"/>
    <rect x="264" y="91" width="34" height="22" fill="#111827"/>
  </g>
</svg>
